<?xml version="1.0" encoding="UTF-8"?>
<svg width="200px" height="41px" viewBox="0 0 200 41" version="1.1" xmlns="http://www.w3.org/2000/svg" xmlns:xlink="http://www.w3.org/1999/xlink">
    <!-- Generator: Sketch 52.5 (67469) - http://www.bohemiancoding.com/sketch -->
    <title>xxxhdpi/Logo_BR</title>
    <desc>Created with Sketch.</desc>
    <g id="Символы" stroke="none" stroke-width="1" fill="none" fill-rule="evenodd">
        <g id="elements-/-header" transform="translate(-135.000000, -22.000000)" fill-rule="nonzero">
            <g id="Logo_BR" transform="translate(135.000000, 21.000000)">
                <g id="g10" transform="translate(101.000000, 21.031781) scale(-1, 1) rotate(-180.000000) translate(-101.000000, -21.031781) translate(0.000000, 0.031781)">
                    <g id="g12">
                        <g id="g14-Clipped">
                            <g id="g14" transform="translate(0.192394, 0.332899)">
                                <g id="g20" transform="translate(0.428973, 2.752669)" fill="#8C9897">
                                    <path d="M0,2.34027679 L1.79171591,2.6117489 C1.86800893,2.26398377 2.02199915,2.00187277 2.25649488,1.8212034 C2.48771423,1.63959792 2.81394881,1.54926323 3.23332641,1.54926323 C3.69576511,1.54926323 4.04212606,1.63491737 4.27474957,1.80622563 C4.4329523,1.92323946 4.5115856,2.08284634 4.5115856,2.28083376 C4.5115856,2.41656981 4.4675884,2.53077532 4.38333844,2.61923778 C4.29347181,2.70255164 4.09501631,2.78118494 3.78609979,2.85279741 C2.34682956,3.16920283 1.43458967,3.46033326 1.048444,3.72244426 C0.514860894,4.08659135 0.247601284,4.59443138 0.247601284,5.24222 C0.247601284,5.82635309 0.477884521,6.31734316 0.93985516,6.71519021 C1.40135774,7.11303727 2.11701438,7.31336496 3.08682509,7.31336496 C4.0102983,7.31336496 4.69787163,7.16311918 5.1467367,6.86262766 C5.59466571,6.5602639 5.90311418,6.11701546 6.07255021,5.52632961 L4.38895511,5.21647695 C4.31874677,5.47858798 4.18160656,5.68125592 3.97893858,5.81933227 C3.77767479,5.95974887 3.49169297,6.02902106 3.1191209,6.02902106 C2.64872527,6.02902106 2.31219347,5.96442943 2.10858939,5.83337394 C1.9742575,5.73835869 1.90638947,5.61666429 1.90638947,5.47109908 C1.90638947,5.34285191 1.9658325,5.23566723 2.08518662,5.14720479 C2.24432544,5.02785064 2.79990715,4.86122294 3.75193174,4.64451333 C4.70114801,4.43014397 5.36578663,4.16522465 5.74257117,3.85115947 C6.11514326,3.53194573 6.30236539,3.08869731 6.30236539,2.52375449 C6.30236539,1.9040492 6.04399883,1.37327442 5.52586156,0.927217663 C5.01006454,0.481628965 4.24619819,0.260238779 3.23332641,0.260238779 C2.3150018,0.260238779 1.58811183,0.448397032 1.05078428,0.820032986 C0.514860894,1.19166894 0.165691597,1.699509 0,2.34027679" id="path22"></path>
                                </g>
                                <path d="M13.0231723,12.479468 L14.8078674,12.479468 L14.8078674,10.8286367 L13.0231723,10.8286367 L13.0231723,12.479468 Z M13.0231723,9.91124823 L14.8078674,9.91124823 L14.8078674,3.16563442 L13.0231723,3.16563442 L13.0231723,9.91124823 Z" id="path24" fill="#8C9897"></path>
                                <g id="g26" transform="translate(20.649292, 3.165400)" fill="#8C9897">
                                    <path d="M0,0 L0,1.39386885 L2.52796699,4.29393986 C2.94266404,4.76807993 3.2501764,5.10601589 3.44769577,5.30400333 C3.24175141,5.29230195 2.96887513,5.28481305 2.63047111,5.28013248 L0.247601284,5.2684311 L0.247601284,6.74561383 L5.82448089,6.74561383 L5.82448089,5.48280046 L3.24643196,2.50877672 L2.33746846,1.52492435 C2.83173491,1.55581601 3.13924729,1.56985767 3.25953751,1.56985767 L6.02106411,1.56985767 L6.02106411,0 L0,0 Z" id="path28"></path>
                                </g>
                                <g id="g30" transform="translate(31.976243, 2.974726)" fill="#8C9897">
                                    <path d="M1.98566686,4.79399901 L0.205652334,5.08981 C0.435467514,5.74227915 0.795402085,6.23794979 1.28966854,6.57869408 C1.78159472,6.92177865 2.40036391,7.09121472 3.14269971,7.09121472 C4.31471032,7.09121472 5.18201691,6.70974957 5.74555557,5.94260684 C6.19114426,5.32805018 6.41393862,4.55341855 6.41393862,3.61683979 C6.41393862,2.49959165 6.12093596,1.62292396 5.53586674,0.988708947 C4.95220174,0.35543005 4.21361035,0.0380885163 3.32009269,0.0380885163 C2.31564589,0.0380885163 1.52463233,0.371811986 0.942839525,1.03411032 C0.362918936,1.69921698 0.0862982181,2.713961 0.110169041,4.08208681 L4.58384216,4.08208681 C4.5707366,4.61052131 4.42797972,5.02287809 4.15276316,5.31588074 C3.87754663,5.61122365 3.53212176,5.75678887 3.12210527,5.75678887 C2.84220817,5.75678887 2.60864854,5.68049585 2.41815001,5.53025007 C2.22765148,5.37532376 2.0806821,5.13006277 1.98566686,4.79399901 Z M1.88409885,2.98824144 C1.89767245,2.47104027 2.0282599,2.07740571 2.28241396,1.80827388 C2.53703607,1.53914205 2.84688872,1.40574627 3.21009968,1.40574627 C3.60092589,1.40574627 3.92154383,1.54850316 4.17522982,1.83261276 C4.43032,2.11578625 4.55529078,2.50193192 4.55154635,2.98824144 L1.88409885,2.98824144 Z" id="path32"></path>
                                </g>
                                <g id="g34" transform="translate(47.398375, 2.890230)" fill="#8C9897">
                                    <path d="M0,7.02083035 L0.989937082,7.02083035 L0.989937082,7.53054266 C0.989937082,8.09782574 1.05078428,8.5218839 1.17341478,8.80318518 C1.29370501,9.08167812 1.5150952,9.3105572 1.83805339,9.48467376 C2.16335187,9.66113064 2.57336836,9.7463167 3.06763482,9.7463167 C3.57781514,9.7463167 4.07442188,9.67283202 4.56166752,9.52024599 L4.32108706,8.27147429 C4.03744553,8.34308677 3.76363312,8.37444645 3.50105408,8.37444645 C3.24175141,8.37444645 3.05686954,8.31734372 2.94360015,8.19564933 C2.83173491,8.07395493 2.77697244,7.84273557 2.77697244,7.49965099 L2.77697244,7.02083035 L4.11139826,7.02083035 L4.11139826,5.61947262 L2.77697244,5.61947262 L2.77697244,0.27521655 L0.989937082,0.27521655 L0.989937082,5.61947262 L0,5.61947262 L0,7.02083035 Z" id="path36"></path>
                                </g>
                                <g id="g38" transform="translate(56.703737, 2.706051)" fill="#8C9897">
                                    <path d="M1.87222143,5.14860894 L0.251813783,5.4416116 C0.434355372,6.09454883 0.747484408,6.57617777 1.19073283,6.89071099 C1.63725764,7.20243585 2.29627959,7.3601705 3.17294727,7.3601705 C3.97144972,7.3601705 4.56353975,7.2646872 4.95296181,7.07606089 C5.34144773,6.88790266 5.61666429,6.64966248 5.77533507,6.35900011 C5.93353777,6.06833773 6.01357525,5.53709489 6.01357525,4.76012298 L5.99438496,2.67540443 C5.99438496,2.08425051 6.02293635,1.6461507 6.08144326,1.36484943 C6.13714184,1.08588843 6.24573071,0.781184394 6.40206117,0.459162305 L4.63468415,0.459162305 C4.58834667,0.578048369 4.5303078,0.754505238 4.46337589,0.988064862 C4.4348245,1.09290926 4.41329397,1.16218145 4.4001884,1.19822172 C4.09408021,0.900070454 3.76878174,0.678212213 3.42242078,0.5284345 C3.07559176,0.382869284 2.70489191,0.30657626 2.30938513,0.30657626 C1.61619515,0.30657626 1.06810233,0.497074791 0.668851106,0.871519078 C0.26725961,1.25017586 0.0673999716,1.72665622 0.0673999716,2.30376847 C0.0673999716,2.68242526 0.159138822,3.02316956 0.341212356,3.3236611 C0.52328589,3.62087624 0.779780227,3.85022337 1.10601481,4.00748996 C1.43365356,4.16662879 1.9091978,4.30517319 2.52609477,4.42405926 C3.36016941,4.57898557 3.9391539,4.72689106 4.25977181,4.86262713 L4.25977181,5.03908397 C4.25977181,5.38450883 4.17364961,5.62742957 4.00608582,5.77533507 C3.83664979,5.92043223 3.51743601,5.99485301 3.04704038,5.99485301 C2.72876274,5.99485301 2.48116145,5.93026138 2.30330042,5.8062267 C2.12590744,5.68266011 1.9826825,5.46314213 1.87222143,5.14860894 Z M4.25977181,3.69997759 C4.03089273,3.62368457 3.67002206,3.53288184 3.17294727,3.42569717 C2.67868082,3.32132082 2.35572262,3.21600837 2.20079629,3.11584452 C1.96957695,2.94921681 1.85303116,2.74186829 1.85303116,2.48677812 C1.85303116,2.23683656 1.94477001,2.0224672 2.13199216,1.8389895 C2.31781013,1.65785208 2.55464615,1.56751739 2.84296824,1.56751739 C3.16592644,1.56751739 3.47203465,1.67189374 3.7650373,1.8820506 C3.98081082,2.04352969 4.1226316,2.23917683 4.18956351,2.47507673 C4.23730514,2.62485445 4.25977181,2.91551683 4.25977181,3.34472359 L4.25977181,3.69997759 Z" id="path40"></path>
                                </g>
                                <g id="g42" transform="translate(68.360749, 0.081899)" fill="#8C9897">
                                    <path d="M0,9.82916252 L1.90030475,9.82916252 L3.51322352,5.04002011 L5.08963397,9.82916252 L6.93751652,9.82916252 L4.5555828,3.33863887 L4.12824826,2.16101159 C3.97332195,1.77065342 3.82307617,1.4678216 3.68265957,1.26047308 C3.53943462,1.05312456 3.37748746,0.886496848 3.19166949,0.755441348 C3.00819179,0.626726124 2.78305716,0.524222 2.51392533,0.455417862 C2.24432544,0.38099706 1.94055751,0.345424854 1.60121738,0.345424854 C1.2581328,0.345424854 0.922069057,0.38099706 0.589749752,0.455417862 L0.432483152,1.851627 C0.711444145,1.79686452 0.962789872,1.77065342 1.18886061,1.77065342 C1.60262155,1.77065342 1.91107003,1.89187976 2.11092966,2.13526854 C2.30798097,2.37818927 2.46243924,2.68757387 2.56728364,3.06435843 L0,9.82916252 Z" id="path44"></path>
                                </g>
                                <g id="g46" transform="translate(80.692380, 2.697345)" fill="#8C9897">
                                    <path d="M6.66622043,0.468055358 L5.00883642,0.468055358 L5.00883642,1.45892855 C4.73361986,1.07325094 4.40878943,0.787269113 4.03340904,0.598642801 C3.65802865,0.410952603 3.28171215,0.315469311 2.89884287,0.315469311 C2.12233902,0.315469311 1.4600407,0.630002511 0.906799262,1.25438836 C0.35543005,1.87877421 0.0778732216,2.75076134 0.0778732216,3.86847752 C0.0778732216,5.01193677 0.347005052,5.88158362 0.884332603,6.47507784 C1.42306432,7.06857202 2.10314876,7.3685955 2.92552202,7.3685955 C3.67675089,7.3685955 4.33015613,7.05359426 4.88058926,6.42733617 L4.88058926,9.78188894 L6.66622043,9.78188894 L6.66622043,0.468055358 Z M1.90188495,3.98736358 C1.90188495,3.26749445 2.0020488,2.74842106 2.20097233,2.42452676 C2.48695415,1.95974778 2.89088592,1.72618816 3.40761904,1.72618816 C3.81903968,1.72618816 4.16774096,1.90217698 4.45606305,2.25041016 C4.74204486,2.60051557 4.88761007,3.12239729 4.88761007,3.81792755 C4.88761007,4.5902189 4.74672543,5.15001312 4.46963663,5.49075741 C4.18927149,5.8315017 3.8316772,6.00327801 3.39357738,6.00327801 C2.97045533,6.00327801 2.61800965,5.83384199 2.33062366,5.49777823 C2.04464184,5.1617145 1.90188495,4.65902305 1.90188495,3.98736358 Z" id="path48"></path>
                                </g>
                                <g id="g50" transform="translate(93.308942, 2.706051)" fill="#8C9897">
                                    <path d="M1.87222143,5.14860894 L0.253217949,5.4416116 C0.434355372,6.09454883 0.746548294,6.57617777 1.192137,6.89071099 C1.6377257,7.20243585 2.29768375,7.3601705 3.17341533,7.3601705 C3.97144972,7.3601705 4.56353975,7.2646872 4.95436596,7.07606089 C5.34144773,6.88790266 5.61666429,6.64966248 5.77533507,6.35900011 C5.93400582,6.06833773 6.0149794,5.53709489 6.0149794,4.76012298 L5.99485301,2.67540443 C5.99485301,2.08425051 6.02293635,1.6461507 6.08144326,1.36484943 C6.13854603,1.08588843 6.24619876,0.781184394 6.40206117,0.459162305 L4.6351522,0.459162305 C4.58975085,0.578048369 4.5303078,0.754505238 4.46337589,0.988064862 C4.43622869,1.09290926 4.41376202,1.16218145 4.4001884,1.19822172 C4.0954844,0.900070454 3.77018592,0.678212213 3.42242078,0.5284345 C3.07699592,0.382869284 2.70489191,0.30657626 2.3107893,0.30657626 C1.61619515,0.30657626 1.06810233,0.497074791 0.669319163,0.871519078 C0.268663776,1.25017586 0.0683360823,1.72665622 0.0683360823,2.30376847 C0.0683360823,2.68242526 0.159138822,3.02316956 0.341212356,3.3236611 C0.523753947,3.62087624 0.779780227,3.85022337 1.10741898,4.00748996 C1.43365356,4.16662879 1.9091978,4.30517319 2.52749893,4.42405926 C3.36063747,4.57898557 3.93962195,4.72689106 4.25977181,4.86262713 L4.25977181,5.03908397 C4.25977181,5.38450883 4.17505379,5.62742957 4.00608582,5.77533507 C3.83664979,5.92043223 3.51790407,5.99485301 3.04844455,5.99485301 C2.72876274,5.99485301 2.48256562,5.93026138 2.30376847,5.8062267 C2.1273116,5.68266011 1.98315055,5.46314213 1.87222143,5.14860894 Z M4.25977181,3.69997759 C4.03229691,3.62368457 3.67002206,3.53288184 3.17341533,3.42569717 C2.67914887,3.32132082 2.35619067,3.21600837 2.20220046,3.11584452 C1.970045,2.94921681 1.85303116,2.74186829 1.85303116,2.48677812 C1.85303116,2.23683656 1.94617418,2.0224672 2.13339632,1.8389895 C2.3192143,1.65785208 2.5551142,1.56751739 2.8434363,1.56751739 C3.16733061,1.56751739 3.4725027,1.67189374 3.76550535,1.8820506 C3.982215,2.04352969 4.12309965,2.23917683 4.19096766,2.47507673 C4.23870933,2.62485445 4.25977181,2.91551683 4.25977181,3.34472359 L4.25977181,3.69997759 Z" id="path52"></path>
                                </g>
                                <polygon id="path54" fill="#8C9897" points="105.811871 12.479468 107.598906 12.479468 107.598906 3.16563442 105.811871 3.16563442"></polygon>
                                <polygon id="path56" fill="#8C9897" points="114.156829 9.91124823 115.941525 9.91124823 115.941525 3.16563442 114.156829 3.16563442"></polygon>
                                <g id="g58" transform="translate(0.066745, 17.178931)" fill="#485DC6">
                                    <path d="M0,5.14860894 L0,22.6571557 L8.5134589,22.6571557 C9.83618333,22.6571557 10.9014773,22.4235961 11.7065326,21.9569449 C12.5106517,21.4921659 13.080275,20.917862 13.4069777,20.241054 C13.7369567,19.5619056 13.9012441,18.8687156 13.9012441,18.1680368 C13.9012441,17.07934 13.6952998,16.2808376 13.2838791,15.785635 C12.8715223,15.2918366 12.3580656,14.8869687 11.7566145,14.5822647 C13.5590957,13.9101372 14.4610383,12.4900572 14.4610383,10.3360665 C14.4610383,9.64708897 14.3290467,8.98713092 14.0631913,8.36321312 C13.7978039,7.7388273 13.4233596,7.19073447 12.9482834,6.72829578 C12.5546489,6.35431954 12.1614824,6.05663635 11.7758048,5.84179894 C11.388723,5.62508929 10.847651,5.4509727 10.1624179,5.33208663 C9.47531266,5.21039223 8.55792415,5.14860894 7.4107205,5.14860894 L0,5.14860894 Z M3.51322352,12.851864 L3.51322352,8.17224656 L8.00047025,8.17224656 C9.8680111,8.17224656 10.805994,9.02785174 10.805994,10.7339135 C10.805994,11.4462938 10.5499678,11.9775366 10.0435319,12.3253017 C9.53615986,12.6758752 8.90802957,12.851864 8.16803404,12.851864 L3.51322352,12.851864 Z M3.51322352,19.6311778 L3.51322352,15.8043572 L7.80341894,15.8043572 C8.57337,15.8043572 9.1972878,15.9663044 9.67189592,16.2855181 C10.1469721,16.6075402 10.3875526,17.0980622 10.3875526,17.756148 C10.3875526,18.4376367 10.1624179,18.9211378 9.71682922,19.2047794 C9.26655996,19.4879529 8.59490053,19.6311778 7.70840369,19.6311778 L3.51322352,19.6311778 Z M28.2096964,14.7081716 L28.2096964,7.68640511 C28.2096964,6.97870539 28.2766283,6.48537504 28.4030033,6.21156266 C28.5303144,5.9372822 28.7194087,5.74912397 28.9637336,5.66112954 L28.9637336,5.14860894 L25.2848185,5.14860894 C25.1275519,5.63491844 25.0194311,6.15165156 24.9693492,6.68804301 C24.4175119,6.12075993 23.834783,5.66346982 23.2239707,5.32272553 C22.608946,4.97964096 21.7907852,4.80786465 20.7704246,4.80786465 C20.0870638,4.80786465 19.4411473,4.94360067 18.8420365,5.21039223 C18.2401173,5.47999213 17.7519356,5.90171 17.3849802,6.46618479 C17.0142803,7.03346787 16.8270582,7.74116755 16.8270582,8.58460333 C16.8270582,9.3994877 16.9880692,10.1025068 17.3082191,10.6885122 C17.6279009,11.2745174 18.0720854,11.7346159 18.6300074,12.0631907 C19.1874613,12.3922337 19.8483555,12.6183044 20.6061371,12.7282974 L23.6789206,13.1907361 C24.4713383,13.3002611 24.8701215,13.6410054 24.8701215,14.2153093 C24.8701215,14.8415673 24.654816,15.2539241 24.2307578,15.4397421 C23.8024872,15.6307087 23.2679679,15.7257239 22.6304766,15.7257239 C21.8773755,15.7257239 21.3545577,15.5539476 21.0685758,15.2132033 C20.7802537,14.8705868 20.6005205,14.4390398 20.5298441,13.9194983 L17.2347344,13.9194983 C17.3564288,15.1584408 17.7018537,16.1142099 18.2593076,16.7816568 C18.8167615,17.4486357 19.4935695,17.8989049 20.2831789,18.1202951 C21.0755967,18.3468339 21.9943893,18.4586991 23.0353444,18.4586991 C23.8062316,18.4586991 24.5832035,18.3590034 25.3550268,18.1563354 C26.1282543,17.9536674 26.8003817,17.5703301 27.3639204,17.0124081 C27.9283951,16.4549541 28.2096964,15.6854712 28.2096964,14.7081716 Z M24.8701215,9.8071639 L24.8701215,11.465484 C24.5069105,11.177162 23.733683,10.9389218 22.5551196,10.7554441 C22.0669379,10.6716622 21.6545811,10.5672858 21.3260063,10.4409109 C20.9955592,10.3145359 20.7325121,10.1216971 20.5359288,9.86426667 C20.3407498,9.60917649 20.2391817,9.25392248 20.2391817,8.80599351 C20.2391817,8.27475067 20.4039372,7.8792439 20.7301718,7.62883429 C21.0592147,7.37655245 21.4233618,7.25017748 21.8193366,7.25017748 C22.3327934,7.25017748 22.8233154,7.35502188 23.2904346,7.56471071 C23.758958,7.7743995 24.1385509,8.07442298 24.4306175,8.46056865 C24.7212799,8.84905461 24.8701215,9.29698358 24.8701215,9.80482365 L24.8701215,9.8071639 Z M43.3536277,14.119826 L43.3536277,5.14860894 L39.9424401,5.14860894 L39.9424401,13.0236403 C39.9424401,13.4715693 39.9007833,13.8769052 39.8184053,14.2340315 C39.7360277,14.5916258 39.5305514,14.9084993 39.2015085,15.1776311 C38.8715294,15.4467629 38.376795,15.582499 37.7182411,15.582499 C37.211805,15.582499 36.7521748,15.4682935 36.3468387,15.2422227 C35.9405667,15.0133437 35.6213532,14.6679188 35.3887295,14.2153093 C35.1556379,13.7622317 35.0386241,13.2141389 35.0386241,12.5803919 L35.0386241,5.14860894 L31.6265005,5.14860894 L31.6265005,18.1202951 L34.8897825,18.1202951 L34.8897825,16.2190543 L34.936588,16.2190543 C35.8240209,17.7107467 37.1284911,18.4586991 38.842978,18.4586991 C39.7042,18.4586991 40.4783635,18.2920715 41.158916,17.958348 C41.8427447,17.6274328 42.3814766,17.1317622 42.7685585,16.4835055 C43.1570443,15.8305683 43.3536277,15.041895 43.3536277,14.119826 Z M50.4076897,9.24456138 L50.4076897,5.14860894 L46.9955663,5.14860894 L46.9955663,22.6571557 L50.4076897,22.6571557 L50.4076897,13.1954167 L54.6964812,18.1202951 L58.8879167,18.1202951 L54.3037826,13.0929125 L59.0119514,5.14860894 L54.9183394,5.14860894 L51.8230894,10.7077024 L50.4076897,9.24456138 Z M68.2799156,5.14860894 L68.2799156,22.6571557 L77.1317787,22.6571557 C78.5410933,22.6571557 79.6597454,22.3711739 80.483055,21.8090394 C81.3073004,21.2440966 81.8745833,20.579458 82.1806918,19.8216763 C82.4882039,19.0638947 82.6440667,18.3538548 82.6440667,17.7037259 C82.6440667,16.724086 82.4034862,15.8520989 81.9284099,15.0989978 C81.4495894,14.3440245 80.7807383,13.8193344 79.9312177,13.5338207 C80.4793106,13.3002611 80.9085174,13.0428306 81.2085408,12.7736988 C81.5137128,12.5040989 81.7472723,12.0847213 81.9092195,11.5272673 C82.0702305,10.9698134 82.1535443,10.154929 82.1535443,9.09946422 C82.1535443,8.1057827 82.1652457,7.40744408 82.1881805,7.00023592 C82.2129876,6.5949 82.2799195,6.28036681 82.3847638,6.07301826 C82.4882039,5.86098918 82.6754262,5.70606287 82.9347287,5.61104762 L82.9347287,5.14860894 L78.8865181,5.14860894 C78.6290876,6.01825578 78.5008404,7.20009557 78.5008404,8.68242688 C78.5008404,9.58296539 78.4432695,10.2550929 78.3360851,10.696001 C78.2279642,11.1364411 77.9714699,11.465484 77.5722188,11.6775131 C77.1734355,11.8918825 76.526583,11.9990672 75.6424262,11.9990672 L71.8633475,11.9990672 L71.8633475,5.14860894 L68.2799156,5.14860894 Z M71.8633475,14.9515604 L76.1535429,14.9515604 C77.1219493,14.9515604 77.8380741,15.1397186 78.294428,15.506674 C78.7498461,15.87831 78.9820014,16.4881861 78.9820014,17.3386427 C78.9820014,17.9466466 78.7947791,18.4802297 78.4222071,18.9426684 C78.0477628,19.3999585 77.3784436,19.6311778 76.4217387,19.6311778 L71.8633475,19.6311778 L71.8633475,14.9515604 Z M93.6096674,8.95623929 L97.1196145,8.95623929 C96.7072578,7.51462876 95.9677305,6.45916394 94.9080528,5.79920589 C93.8469716,5.14158812 92.6819816,4.80786465 91.4172961,4.80786465 C90.4802493,4.80786465 89.615283,4.93189929 88.8322262,5.1795006 C88.0496379,5.42756993 87.3658089,5.83009755 86.7854202,6.38053064 C86.2064358,6.93330401 85.752422,7.67657592 85.4355486,8.59677277 C85.1196113,9.51837376 84.9581323,10.6243886 84.9581323,11.9063922 C84.9581323,12.4469961 85.0306809,13.071382 85.1701613,13.7673803 C85.3129181,14.4675911 85.5942195,15.1799714 86.0135972,15.8975002 C86.4315706,16.6169013 87.0681259,17.2244372 87.917178,17.7177675 C88.7666986,18.2134382 89.8558635,18.4586991 91.1734394,18.4586991 C91.8895638,18.4586991 92.6019443,18.3538548 93.2988787,18.1469743 C93.9995574,17.9368174 94.6524947,17.5722023 95.2478613,17.0554692 C95.846972,16.5406083 96.3342177,15.802017 96.7072578,14.8513965 C97.0817021,13.9007761 97.268456,12.7184682 97.268456,11.312898 L97.268456,10.7077024 L88.3725961,10.7077024 C88.4175294,10.1811401 88.5130128,9.69717092 88.6454723,9.26375163 C88.7788681,8.82752404 89.0695305,8.43201727 89.5099706,8.0795716 C89.9536869,7.7219773 90.5907103,7.54318014 91.4172961,7.54318014 C91.9120305,7.54318014 92.3740014,7.66955511 92.7924429,7.91949667 C93.2108844,8.17224656 93.4856326,8.51813947 93.6063911,8.95623929 L93.6096674,8.95623929 Z M88.4676113,12.9286251 L93.7566369,12.9286251 C93.6705145,13.8815858 93.3690869,14.5747758 92.8626511,15.0063228 C92.3520028,15.4374018 91.7688057,15.6517712 91.1200809,15.6517712 C89.5614567,15.6517712 88.6773,14.7437438 88.4676113,12.9286251 Z M110.582291,14.1745885 L107.24646,14.1699079 C107.157998,14.7011507 106.958138,15.1205283 106.655306,15.4210199 C106.350602,15.7233837 105.783319,15.8736294 104.953925,15.8736294 C103.555376,15.8736294 102.855165,15.4491032 102.855165,14.6033272 C102.855165,14.1699079 103.317135,13.8338441 104.236864,13.6002845 C105.158933,13.3643846 106.145594,13.1284848 107.194038,12.8902446 C108.237801,12.6496641 109.13366,12.2564976 109.869443,11.7107451 C110.603821,11.1673328 110.975926,10.3501081 110.975926,9.26609191 C110.975926,8.11280351 110.663265,7.20009557 110.045899,6.53545695 C109.424322,5.87035028 108.68573,5.41306021 107.827785,5.17247975 C106.96984,4.93189929 106.121723,4.80786465 105.287649,4.80786465 C103.576906,4.80786465 102.121254,5.15562975 100.920224,5.85396837 C99.719194,6.55230695 99.0948082,7.70044674 99.050811,9.29230301 L102.561694,9.29230301 C102.561694,8.0271494 103.505762,7.3929344 105.392961,7.3929344 C106.171805,7.3929344 106.731599,7.53615933 107.062983,7.81512032 C107.393898,8.09361326 107.563334,8.40112564 107.563334,8.7297005 C107.563334,9.19916 107.082173,9.55675429 106.121723,9.79733475 C105.161742,10.0430638 104.179762,10.2836443 103.178591,10.5143956 C102.176953,10.7456149 101.315731,11.1317606 100.597266,11.667684 C99.8778649,12.2064157 99.5165259,13.0236403 99.5165259,14.119826 C99.5165259,14.8223771 99.6812816,15.506674 100.009856,16.1666321 C100.339835,16.8242499 100.901034,17.3723427 101.68409,17.8057619 C102.469019,18.2396493 103.491252,18.4586991 104.754066,18.4586991 C108.4283,18.4586991 110.372602,17.0292581 110.582291,14.1699079 L110.582291,14.1745885 Z M117.02086,11.3391091 C117.02086,10.2784957 117.263313,9.39246688 117.759452,8.68242688 C118.252314,7.97238691 119.007755,7.61479262 120.013138,7.61479262 C120.689946,7.61479262 121.238039,7.82214113 121.657417,8.23449791 C122.074454,8.64638663 122.374478,9.14907809 122.553275,9.74491255 C122.729732,10.340747 122.820066,10.9389218 122.820066,11.5347562 C122.820066,12.6758752 122.586507,13.6218151 122.124536,14.3772564 C121.662565,15.1303575 120.923974,15.506674 119.918123,15.506674 C117.983182,15.506674 117.01852,14.1174857 117.01852,11.3391091 L117.02086,11.3391091 Z M117.02086,18.1202951 L117.01852,16.2382445 L117.065794,16.2382445 C117.487511,16.909904 117.987863,17.4486357 118.557486,17.8511633 C119.13179,18.2560312 119.927484,18.4586991 120.942696,18.4586991 C121.666778,18.4586991 122.355287,18.3206228 123.001204,18.0416618 C123.64946,17.7631689 124.226105,17.341451 124.726924,16.783529 C125.226807,16.2260751 125.622782,15.523524 125.903615,14.686641 C126.189597,13.8506941 126.332354,12.8785432 126.332354,11.777677 C126.332354,10.543415 126.134366,9.3901266 125.748689,8.32483259 C125.360202,7.25953862 124.750327,6.40908202 123.930294,5.76831422 C123.110729,5.12941865 122.086623,4.80786465 120.871084,4.80786465 C119.210423,4.80786465 117.987863,5.47765184 117.216039,6.81160961 L117.163617,6.81160961 L117.163617,0.0973555145 L113.751026,0.0973555145 L113.751026,18.1202951 L117.02086,18.1202951 Z M140.7962,18.1202951 L140.7962,5.14860894 L137.526834,5.14860894 L137.526834,6.97636511 L137.47956,6.97636511 C137.092946,6.27802652 136.559363,5.73976287 135.887236,5.37046716 C135.215576,4.99602291 134.426903,4.80786465 133.533385,4.80786465 C132.661398,4.80786465 131.893787,4.97964096 131.231489,5.31804496 C130.564042,5.66112954 130.044969,6.19003209 129.678013,6.90241238 C129.306377,7.61479262 129.120091,8.51299085 129.120091,9.58296539 L129.120091,18.1202951 L132.532215,18.1202951 L132.532215,10.0716152 C132.532215,8.47975894 133.275955,7.68640511 134.748457,7.68640511 C135.439307,7.68640511 136.054332,7.91762443 136.585106,8.37257426 C137.116817,8.82752404 137.384077,9.58530567 137.384077,10.6384302 L137.384077,18.1202951 L140.7962,18.1202951 Z M153.353189,11.5347562 C153.353189,12.6758752 153.12431,13.6218151 152.661872,14.3772564 C152.199901,15.1303575 151.46131,15.506674 150.450778,15.506674 C148.506476,15.506674 147.531985,14.1174857 147.531985,11.3391091 C147.531985,10.2836443 147.781927,9.39714741 148.282746,8.68710745 C148.783097,7.97238691 149.543219,7.61479262 150.555623,7.61479262 C151.22775,7.61479262 151.773502,7.82214113 152.19288,8.23449791 C152.609917,8.64638663 152.909941,9.14907809 153.088738,9.74491255 C153.264727,10.340747 153.353189,10.9389218 153.353189,11.5347562 Z M147.67755,22.6571557 L147.67755,16.428743 L147.724824,16.428743 C148.599151,17.7823591 149.855412,18.4586991 151.4805,18.4586991 C152.20505,18.4586991 152.890751,18.3206228 153.539007,18.0416618 C154.184924,17.7631689 154.7611,17.341451 155.261919,16.783529 C155.761802,16.2260751 156.157777,15.523524 156.440951,14.686641 C156.724592,13.8506941 156.867817,12.8785432 156.867817,11.777677 C156.867817,10.543415 156.670298,9.3901266 156.283684,8.32483259 C155.895198,7.25953862 155.287662,6.40908202 154.466225,5.76831422 C153.64666,5.12941865 152.6263,4.80786465 151.40842,4.80786465 C149.650404,4.80786465 148.396951,5.4678227 147.653679,6.7783777 L147.60547,6.7783777 L147.60547,5.14860894 L144.265427,5.14860894 L144.265427,22.6571557 L147.67755,22.6571557 Z M163.141631,5.14860894 L159.729507,5.14860894 L159.729507,22.6571557 L163.141631,22.6571557 L163.141631,5.14860894 Z M166.875309,18.1202951 L170.287432,18.1202951 L170.287432,5.14860894 L166.875309,5.14860894 L166.875309,18.1202951 Z M170.287432,19.6573889 L166.875309,19.6573889 L166.875309,22.828932 L170.287432,22.828932 L170.287432,19.6573889 Z M177.433233,9.24456138 L177.433233,5.14860894 L174.021578,5.14860894 L174.021578,22.6571557 L177.433233,22.6571557 L177.433233,13.1954167 L181.722493,18.1202951 L185.91112,18.1202951 L181.329326,13.0929125 L186.035623,5.14860894 L181.942011,5.14860894 L178.848633,10.7077024 L177.433233,9.24456138 Z M198.345011,14.7081716 L198.345011,7.68640511 C198.345011,6.97870539 198.411474,6.48537504 198.53785,6.21156266 C198.663756,5.9372822 198.854723,5.74912397 199.097644,5.66112954 L199.097644,5.14860894 L195.421537,5.14860894 C195.261462,5.63491844 195.156618,6.15165156 195.104195,6.68804301 C194.553762,6.12075993 193.970097,5.66346982 193.359753,5.32272553 C192.745196,4.97964096 191.925632,4.80786465 190.905739,4.80786465 C190.22425,4.80786465 189.575994,4.94360067 188.978287,5.21039223 C188.374963,5.47999213 187.889122,5.90171 187.522167,6.46618479 C187.150531,7.03346787 186.961904,7.74116755 186.961904,8.58460333 C186.961904,9.3994877 187.12432,10.1025068 187.446342,10.6885122 C187.765088,11.2745174 188.208336,11.7346159 188.766258,12.0631907 C189.323712,12.3922337 189.985542,12.6183044 190.743324,12.7282974 L193.815171,13.1907361 C194.608525,13.3002611 195.006372,13.6410054 195.006372,14.2153093 C195.006372,14.8415673 194.789662,15.2539241 194.365604,15.4397421 C193.939206,15.6307087 193.402814,15.7257239 192.766727,15.7257239 C192.011285,15.7257239 191.489404,15.5539476 191.20623,15.2132033 C190.915568,14.8705868 190.736771,14.4390398 190.667499,13.9194983 L187.36958,13.9194983 C187.490807,15.1584408 187.836232,16.1142099 188.394154,16.7816568 C188.951608,17.4486357 189.628884,17.8989049 190.419429,18.1202951 C191.210443,18.3468339 192.130172,18.4586991 193.171595,18.4586991 C193.941078,18.4586991 194.718518,18.3590034 195.489873,18.1563354 C196.264505,17.9536674 196.934292,17.5703301 197.501107,17.0124081 C198.063241,16.4549541 198.345011,15.6854712 198.345011,14.7081716 Z M195.006372,9.8071639 L195.006372,11.465484 C194.642225,11.177162 193.869933,10.9389218 192.690434,10.7554441 C192.202252,10.6716622 191.792236,10.5672858 191.461321,10.4409109 C191.132278,10.3145359 190.867826,10.1216971 190.672179,9.86426667 C190.476532,9.60917649 190.376836,9.25392248 190.376836,8.80599351 C190.376836,8.27475067 190.538783,7.8792439 190.867826,7.62883429 C191.196401,7.37655245 191.558676,7.25017748 191.953715,7.25017748 C192.468576,7.25017748 192.959566,7.35502188 193.426685,7.56471071 C193.893804,7.7743995 194.274801,8.07442298 194.565464,8.46056865 C194.856594,8.84905461 195.006372,9.29698358 195.006372,9.80482365 L195.006372,9.8071639 Z" id="path60"></path>
                                </g>
                            </g>
                        </g>
                    </g>
                </g>
            </g>
        </g>
    </g>
</svg>