<svg width="130" height="51" viewBox="0 0 130 51" fill="none" xmlns="http://www.w3.org/2000/svg">
<path d="M30.5363 18.9477C29.4549 17.9833 28.2027 17.1891 26.8082 16.5651C30.3656 8.28254 38.6186 2.80812 47.7539 2.80812C54.4702 2.80812 60.6742 5.70133 64.9715 10.6652H68.5574C63.7478 3.94271 56.0924 0 47.7539 0C36.9965 0 27.292 6.80756 23.6493 16.9055L23.1655 18.2386L25.1576 18.9194C26.4667 19.4583 27.662 20.1674 28.6581 21.0467C32.0162 23.9967 33.9514 28.223 33.9514 32.6479V32.8465C33.8945 41.2992 26.8936 48.1919 18.3275 48.1919C10.2452 48.1919 3.61427 42.0083 2.9028 34.1513H11.0705C11.725 37.5551 14.7417 40.1079 18.3275 40.1079C22.3971 40.1079 25.7268 36.8176 25.7268 32.733V32.3927C25.7268 28.3365 22.4256 25.0178 18.3275 25.0178H12.7211C12.8065 21.1035 13.8879 17.2458 15.9085 13.8988L17.1891 11.7714H4.18345V3.68743H28.9996V0.87931H1.33757V14.5795H12.3511C10.729 17.9833 9.90368 21.6991 9.90368 25.4716C9.90368 25.812 9.93214 26.436 9.93214 26.4928L10.0175 27.8259H18.356C20.8888 27.8259 22.9378 29.8682 22.9378 32.3927V32.733C22.9378 35.2575 20.8888 37.2998 18.356 37.2998C15.8231 37.2998 13.7741 35.2575 13.7741 32.733V31.3148H0V32.733C0 42.8026 8.22461 50.9716 18.3275 50.9716C28.3735 50.9716 36.5981 42.916 36.7404 32.96V32.6196C36.7688 27.4004 34.4921 22.4082 30.5363 18.9477Z" fill="#475ED0"/>
<path d="M62.8371 42.4622C58.7105 46.1496 53.3887 48.1919 47.7254 48.1919C43.7981 48.1919 39.9277 47.1707 36.5126 45.2419L35.1182 47.6813C38.9601 49.837 43.3143 51 47.7254 51C55.0963 51 61.9264 47.9082 66.7928 42.4622H62.8371Z" fill="#475ED0"/>
<path fill-rule="evenodd" clip-rule="evenodd" d="M75.1315 21.0467V23.8264H72.7978V11.9132H75.1315V18.352L78.0627 15.005H80.9086L77.7781 18.4371L80.994 23.8264H78.205L76.0991 20.0539L75.1315 21.0467ZM70.3219 17.728V23.8264H67.9883V18.4655C67.9883 18.1535 67.9598 17.8982 67.9029 17.6429C67.846 17.3876 67.7037 17.1891 67.476 16.9905C67.2484 16.8203 66.9069 16.7069 66.4515 16.7069C66.11 16.7069 65.797 16.792 65.5124 16.9338C65.2278 17.0756 65.0286 17.3309 64.8578 17.6429C64.6871 17.9549 64.6301 18.3237 64.6301 18.7491V23.7981H62.2965V14.9766H64.5163V16.2814H64.5448C65.1424 15.2603 66.0531 14.7497 67.2199 14.7497C67.8175 14.7497 68.3298 14.8632 68.8136 15.0901C69.2689 15.317 69.6389 15.6574 69.9235 16.0828C70.1796 16.565 70.3219 17.104 70.3219 17.728ZM57.7146 20.6779V19.5434C57.4585 19.7419 56.9463 19.9121 56.1494 20.0256C55.8079 20.0823 55.5233 20.1674 55.3241 20.2525C55.0964 20.3376 54.9257 20.4794 54.7834 20.6496C54.6411 20.8198 54.5842 21.0751 54.5842 21.3587C54.5842 21.7274 54.698 21.9827 54.9257 22.1529C55.1533 22.3231 55.4095 22.4082 55.6656 22.4082C56.0071 22.4082 56.3486 22.3231 56.6617 22.1813C56.9747 22.0395 57.2308 21.8409 57.4301 21.5856C57.6008 21.3303 57.7146 21.0183 57.7146 20.6779ZM59.9913 17.3309V22.0962C59.9913 22.5784 60.0483 22.9188 60.1336 23.089C60.219 23.2875 60.3613 23.401 60.5036 23.4577V23.7981H57.9992C57.8854 23.4577 57.8285 23.1173 57.7716 22.7486C57.4016 23.1457 57.0032 23.4577 56.5763 23.6846C56.1494 23.9115 55.6087 24.025 54.8972 24.025C54.4419 24.025 53.9865 23.9399 53.5881 23.7414C53.1897 23.5712 52.8482 23.2591 52.592 22.8904C52.3359 22.4933 52.2221 22.0111 52.2221 21.4438C52.2221 20.8765 52.3359 20.4227 52.5636 20.0256C52.7913 19.6284 53.0759 19.3164 53.4743 19.0895C53.8442 18.8626 54.2996 18.7208 54.8118 18.6357L56.9178 18.3237C57.4585 18.2386 57.7431 18.0116 57.7431 17.6145C57.7431 17.1891 57.6008 16.9054 57.3162 16.792C57.0316 16.6501 56.6617 16.5934 56.2348 16.5934C55.7225 16.5934 55.3526 16.7069 55.1818 16.9338C54.9826 17.1607 54.8688 17.4727 54.8118 17.8131H52.5636C52.649 16.9621 52.8766 16.3098 53.2751 15.8559C53.645 15.4021 54.1288 15.0901 54.6696 14.9482C55.2103 14.8064 55.8364 14.7213 56.5478 14.7213C57.0601 14.7213 57.6008 14.7781 58.1415 14.9199C58.6822 15.0617 59.1376 15.317 59.5076 15.6857C59.7921 16.1679 59.9913 16.6785 59.9913 17.3309ZM43.1437 13.9838V16.5934H46.075C46.5872 16.5934 47.0141 16.4799 47.3556 16.253C47.6687 16.0261 47.8394 15.7141 47.8394 15.2603C47.8394 14.8064 47.6971 14.466 47.3841 14.2675C47.071 14.0689 46.6157 13.9838 46.0181 13.9838H43.1437ZM43.1437 18.6073V21.7842H46.2173C47.4979 21.7842 48.124 21.1885 48.124 20.0539C48.124 19.5717 47.9533 19.203 47.6118 18.9761C47.2702 18.7491 46.8434 18.6073 46.3311 18.6073H43.1437ZM40.7532 23.8548V11.9416H46.5588C47.4695 11.9416 48.1809 12.1118 48.7501 12.4238C49.2908 12.7358 49.6892 13.1329 49.9169 13.5867C50.1446 14.0406 50.2584 14.5228 50.2584 15.005C50.2584 15.7425 50.1161 16.2814 49.8315 16.6218C49.547 16.9621 49.2054 17.2458 48.7786 17.4444C50.0023 17.8982 50.6284 18.8626 50.6284 20.3376C50.6284 20.8198 50.543 21.2452 50.3438 21.6707C50.173 22.0962 49.9169 22.4649 49.5754 22.7769C49.3193 23.0322 49.0347 23.2308 48.7786 23.3726C48.5224 23.5144 48.1525 23.6279 47.6687 23.713C47.2133 23.7981 46.5872 23.8264 45.7904 23.8264H40.7532V23.8548Z" fill="#475ED0"/>
<path fill-rule="evenodd" clip-rule="evenodd" d="M127.211 35.7113V34.5767C126.955 34.7753 126.443 34.9455 125.617 35.0589C125.276 35.1157 124.991 35.2008 124.792 35.2859C124.564 35.371 124.394 35.5128 124.251 35.683C124.109 35.8532 124.052 36.1084 124.052 36.3921C124.052 36.7608 124.166 37.0161 124.394 37.1863C124.621 37.3565 124.878 37.4416 125.134 37.4416C125.475 37.4416 125.817 37.3565 126.13 37.2147C126.443 37.0728 126.699 36.8743 126.898 36.619C127.126 36.3637 127.211 36.0517 127.211 35.7113ZM129.488 32.3643V37.1296C129.488 37.6118 129.545 37.9522 129.63 38.1223C129.715 38.3209 129.858 38.4344 130 38.4911V38.8315H127.496C127.382 38.4911 127.325 38.1507 127.268 37.782C126.898 38.1791 126.5 38.4911 126.073 38.718C125.646 38.9449 125.105 39.0584 124.394 39.0584C123.938 39.0584 123.483 38.9733 123.085 38.7747C122.686 38.6045 122.345 38.2925 122.089 37.9238C121.832 37.5267 121.719 37.0445 121.719 36.4772C121.719 35.9099 121.832 35.456 122.06 35.0589C122.288 34.6618 122.572 34.3498 122.971 34.1229C123.341 33.896 123.796 33.7542 124.308 33.6691L126.414 33.357C126.955 33.272 127.24 33.045 127.24 32.6479C127.24 32.2225 127.097 31.9388 126.813 31.8253C126.528 31.6835 126.158 31.6268 125.731 31.6268C125.219 31.6268 124.849 31.7403 124.678 31.9672C124.479 32.1941 124.365 32.5061 124.308 32.8465H122.06C122.145 31.9955 122.373 31.3431 122.772 30.8893C123.142 30.4355 123.625 30.1235 124.166 29.9816C124.707 29.8398 125.333 29.7547 126.044 29.7547C126.557 29.7547 127.097 29.8114 127.638 29.9533C128.179 30.0951 128.634 30.3504 129.004 30.7191C129.317 31.173 129.488 31.7119 129.488 32.3643ZM115.23 36.0801V38.8598H112.896V26.9466H115.23V33.3854L118.161 30.0384H121.007L117.877 33.4705L121.092 38.8598H118.304L116.198 35.0873L115.23 36.0801ZM110.363 28.9889H108.03V26.8331H110.363V28.9889ZM108.03 30.0384H110.363V38.8598H108.03V30.0384ZM105.469 38.8598H103.135V26.9466H105.469V38.8598ZM94.9388 26.975V31.2013H94.9673C95.5649 30.2936 96.4187 29.8114 97.5286 29.8114C98.0124 29.8114 98.4962 29.8965 98.923 30.0951C99.3784 30.2936 99.7483 30.5773 100.09 30.946C100.431 31.3148 100.687 31.797 100.887 32.3643C101.086 32.9316 101.171 33.584 101.171 34.3498C101.171 35.2008 101.029 35.9666 100.773 36.7041C100.517 37.4416 100.09 38.0089 99.5207 38.4344C98.9515 38.8598 98.2685 39.0867 97.4432 39.0867C96.2479 39.0867 95.3941 38.6329 94.8819 37.7536H94.8534V38.8598H92.5767V26.9466H94.9388V26.975ZM98.8092 34.52C98.8092 33.7542 98.6385 33.1018 98.3254 32.5912C98.0124 32.0806 97.5001 31.8253 96.8171 31.8253C95.4795 31.8253 94.825 32.7614 94.825 34.6618C94.825 35.371 94.9957 35.995 95.3372 36.4772C95.6787 36.9594 96.191 37.2147 96.874 37.2147C97.3293 37.2147 97.6993 37.0728 97.9839 36.7892C98.2685 36.5055 98.4677 36.1652 98.5815 35.7681C98.7523 35.3426 98.8092 34.9171 98.8092 34.52ZM90.2431 30.0384V38.8598H88.0233V37.6118H87.9948C87.7387 38.094 87.3688 38.4627 86.9134 38.6896C86.4581 38.9449 85.9174 39.0584 85.3197 39.0584C84.7221 39.0584 84.2098 38.9449 83.7545 38.718C83.2991 38.4911 82.9576 38.1223 82.7015 37.6401C82.4454 37.1579 82.3315 36.5339 82.3315 35.8248V30.01H84.6652V35.4844C84.6652 36.5623 85.1774 37.1012 86.1735 37.1012C86.6573 37.1012 87.0557 36.931 87.4257 36.6474C87.7956 36.3354 87.9664 35.8248 87.9664 35.1157V30.0384H90.2431ZM74.0216 30.0384V31.3148H74.05C74.3346 30.8609 74.6761 30.4922 75.0745 30.2085C75.473 29.9249 76.0137 29.7831 76.6967 29.7831C77.1805 29.7831 77.6643 29.8682 78.0912 30.0667C78.5465 30.2653 78.9165 30.5489 79.258 30.9177C79.5995 31.2864 79.8841 31.7686 80.0548 32.3359C80.254 32.9032 80.3394 33.5556 80.3394 34.3215C80.3394 35.1724 80.1971 35.9382 79.941 36.6757C79.6849 37.4132 79.258 37.9805 78.6888 38.406C78.1196 38.8315 77.4366 39.0584 76.6113 39.0584C75.473 39.0584 74.6477 38.6045 74.1069 37.6969H74.0785V42.2636H71.7449V30.01H74.0216V30.0384ZM74.0216 34.6618C74.0216 35.371 74.1923 35.995 74.5338 36.4772C74.8753 36.9594 75.3876 37.2147 76.0706 37.2147C76.5259 37.2147 76.8959 37.0728 77.1805 36.7892C77.4651 36.5055 77.6643 36.1652 77.7781 35.7681C77.892 35.371 77.9489 34.9455 77.9489 34.5484C77.9489 33.7825 77.7781 33.1301 77.4651 32.6196C77.152 32.109 76.6398 31.8537 75.9568 31.8537C74.6761 31.8253 74.0216 32.7614 74.0216 34.6618ZM69.6389 32.733H67.3622C67.3053 32.3643 67.163 32.0806 66.9638 31.8821C66.7646 31.6835 66.3661 31.5701 65.7969 31.5701C64.8578 31.5701 64.374 31.8537 64.374 32.421C64.374 32.7047 64.6871 32.9316 65.3132 33.1018C65.9392 33.272 66.6223 33.4138 67.3337 33.584C68.0452 33.7542 68.6713 34.0094 69.1551 34.3782C69.6674 34.7469 69.9235 35.3142 69.9235 36.0517C69.9235 36.8459 69.7243 37.4699 69.2974 37.8954C68.8705 38.3493 68.3582 38.6613 67.7891 38.8315C67.1914 39.0017 66.6223 39.0867 66.0531 39.0867C64.8863 39.0867 63.8902 38.8598 63.0649 38.3776C62.2396 37.8954 61.8127 37.1296 61.7843 36.0517H64.1748C64.1748 36.9027 64.8293 37.3565 66.11 37.3565C66.6507 37.3565 67.0207 37.2714 67.2484 37.0728C67.476 36.8743 67.5899 36.6757 67.5899 36.4488C67.5899 36.1368 67.2484 35.8815 66.5938 35.7113C65.9392 35.5411 65.2562 35.371 64.5732 35.2291C63.8902 35.0589 63.2926 34.8037 62.8088 34.4349C62.325 34.0662 62.0688 33.4989 62.0688 32.7614C62.0688 32.2792 62.1827 31.8253 62.4103 31.3715C62.638 30.9177 63.008 30.5489 63.5487 30.2653C64.0894 29.9816 64.7724 29.8114 65.6547 29.8114C68.159 29.8114 69.4966 30.7758 69.6389 32.733ZM54.5273 33.584H58.1415C58.0846 32.9316 57.8854 32.4777 57.5439 32.1657C57.2024 31.8821 56.804 31.7403 56.3486 31.7403C55.2956 31.7119 54.6695 32.3359 54.5273 33.584ZM58.0561 36.2786H60.4467C60.1621 37.2714 59.6498 37.9805 58.9384 38.4344C58.2269 38.8882 57.43 39.1151 56.5478 39.1151C55.9217 39.1151 55.3241 39.03 54.7834 38.8598C54.2427 38.6896 53.7873 38.406 53.3889 38.0372C52.9905 37.6685 52.6774 37.1579 52.4782 36.5339C52.2505 35.9099 52.1652 35.144 52.1652 34.2931C52.1652 33.9243 52.2221 33.4989 52.3075 33.0167C52.3928 32.5345 52.592 32.0523 52.8766 31.5701C53.1612 31.0879 53.5881 30.6624 54.1857 30.322C54.7549 29.9816 55.4948 29.8114 56.4055 29.8114C56.8893 29.8114 57.3731 29.8965 57.8569 30.01C58.3407 30.1518 58.7676 30.4071 59.1945 30.7475C59.5929 31.0879 59.9344 31.5984 60.1906 32.2508C60.4467 32.9032 60.5605 33.6974 60.5605 34.6618V35.0873H54.4988C54.5273 35.456 54.5842 35.7681 54.698 36.0801C54.7834 36.3637 54.9826 36.6474 55.2956 36.8743C55.6087 37.1296 56.0356 37.243 56.6047 37.243C56.9463 37.243 57.2593 37.1579 57.5439 36.9877C57.7716 36.8176 57.9708 36.5623 58.0561 36.2786ZM43.2006 32.1941H46.1319C46.7864 32.1941 47.2702 32.0523 47.5833 31.8253C47.8963 31.5701 48.0386 31.1446 48.0386 30.5773C48.0386 30.1518 47.9248 29.8114 47.6687 29.4994C47.4125 29.1874 46.9572 29.0172 46.3026 29.0172H43.2006V32.1941ZM40.7532 38.8598V26.9466H46.7864C47.754 26.9466 48.5224 27.1451 49.0632 27.5139C49.6323 27.911 50.0023 28.3365 50.23 28.8754C50.4292 29.386 50.543 29.8682 50.543 30.322C50.543 30.9744 50.3723 31.5701 50.0592 32.0806C49.7462 32.5912 49.2624 32.9599 48.6932 33.1585C49.0632 33.3287 49.3477 33.4989 49.5754 33.6691C49.7746 33.8393 49.9454 34.1513 50.0592 34.52C50.173 34.8887 50.23 35.456 50.23 36.1652C50.23 36.8459 50.23 37.3281 50.2584 37.5834C50.2869 37.8671 50.3153 38.0656 50.4007 38.2074C50.4576 38.3493 50.5999 38.4627 50.7707 38.5194V38.8315H48.0102C47.8394 38.2358 47.754 37.4416 47.754 36.4205C47.754 35.7964 47.7256 35.3426 47.6402 35.0589C47.5548 34.7469 47.3841 34.5484 47.128 34.3782C46.8434 34.2364 46.4165 34.1513 45.8188 34.1513H43.2291V38.8031H40.7532V38.8598Z" fill="#475ED0"/>
</svg>
